# xmcd
#
# Track frame offsets:
#	150
#	18921
#	34613
#	57903
#	85549
#	109480
#	126565
#	145176
#	166507
#	189139
#	215724
#
# Disc length: 3125 seconds
#
# Revision: 1
# Processed by: cddbd v1.5.1PL0 Copyright (c) Steve Scherf et al.
# Submitted via: audiograbber 1.83.01
#
DISCID=8e0c330b
DTITLE=Debbie Davies - All I Found
DYEAR=2005
DGENRE=Blues
TTITLE0=Made Right In The USA
TTITLE1=One More Time
TTITLE2=Evidence
TTITLE3=All I Found
TTITLE4=Troughin'
TTITLE5=I Won't Be Your Baby Too Long
TTITLE6=So What
TTITLE7=Comfort Zone
TTITLE8=Every Breath I Take
TTITLE9=Trying To Keep It Real
TTITLE10=What Do You See In That Girl
EXTD=2005 Telarc Blues
EXTT0=
EXTT1=
EXTT2=
EXTT3=
EXTT4=
EXTT5=
EXTT6=
EXTT7=
EXTT8=
EXTT9=
EXTT10=
PLAYORDER=
